<svg id="Delete" xmlns="http://www.w3.org/2000/svg" width="22" height="22" viewBox="0 0 22 22">
  <path id="Path_4493" data-name="Path 4493" d="M588.75,561h-3v-.75A2.25,2.25,0,0,0,583.5,558H579a2.25,2.25,0,0,0-2.25,2.25V561h-3a.75.75,0,1,0,0,1.5h.79l.634,11.375a2.25,2.25,0,0,0,2.25,2.125h7.656a2.25,2.25,0,0,0,2.25-2.125l.628-11.375h.79a.75.75,0,1,0,0-1.5Zm-10.5-.75a.75.75,0,0,1,.75-.75h4.5a.75.75,0,0,1,.75.75V561h-6Zm.75,10.5a.75.75,0,1,1-1.5,0v-4.5a.75.75,0,1,1,1.5,0Zm3,0a.75.75,0,1,1-1.5,0v-4.5a.75.75,0,1,1,1.5,0Zm3,0a.75.75,0,0,1-1.5,0v-4.5a.75.75,0,0,1,1.5,0Zm0,0" transform="translate(-570.253 -556)" fill="#878585"/>
  <rect id="Rectangle_3866" data-name="Rectangle 3866" width="22" height="22" fill="none" opacity="0.5"/>
</svg>
